<svg width="612" height="734" viewBox="0 0 612 734" fill="none" xmlns="http://www.w3.org/2000/svg">
<g id="about-illustrations">
<g id="about-plant-2">
<path id="Vector" d="M477.211 443.577C471.287 438.151 481.919 429.327 477.211 419.064C473.013 409.88 459.361 405.696 452.927 403.735C443.473 400.826 441.433 402.722 427.938 398.833C411.304 394.061 409.813 389.877 409.539 388.407C409.333 387.476 409.393 386.517 409.713 385.609C410.033 384.701 410.605 383.868 411.383 383.177C414.325 380.955 419.229 382.589 427.075 384.125C438.844 386.38 446.69 387.982 448.416 385.955C451.123 382.687 438.491 366.345 421.935 364.515C415.972 363.829 414.325 365.561 401.339 365.136C385.922 364.613 383.647 362.031 382.941 360.822C382.292 359.717 382.083 358.468 382.344 357.258C382.605 356.047 383.322 354.937 384.392 354.089C385.844 353.337 387.374 354.089 391.218 354.743C397.966 356.181 402.595 357.161 404.243 355.756C405.89 354.35 404.243 349.742 401.85 346.866C397.926 342.061 394.003 342.715 388.394 337.682C386.157 335.688 380.547 330.818 382.352 326.471C382.815 325.28 383.692 324.231 384.873 323.457C386.054 322.683 387.484 322.219 388.982 322.124C392.709 322.386 393.533 326.994 401.418 333.172C404.909 335.884 405.812 335.851 406.243 335.688C408.597 334.675 402.634 325.883 406.675 322.288C408.399 321.136 410.56 320.535 412.769 320.595C414.978 320.655 417.088 321.372 418.719 322.615C421.269 325.033 419.072 328.334 419.111 334.675C419.429 339.487 420.647 344.229 422.72 348.729C429.546 364.744 461.205 377.425 468.816 371.607C472.739 368.568 469.718 361.148 467.639 355.854C457.87 331.308 428.762 316.633 424.289 314.476C411.069 307.94 395.494 303.299 392.395 294.147C392.081 293.232 390.865 289.637 392.787 288.232C394.71 286.826 397.456 288.232 404.556 289.866C411.657 291.5 415.776 292.415 416.757 291.532C419.189 289.31 412.834 278.459 402.595 270.844C397.377 267.085 392.944 265.582 392.356 261.66C392.077 260.103 392.379 258.513 393.221 257.104C394.063 255.695 395.405 254.536 397.063 253.783C403.654 251.953 413.854 263.588 418.719 269.21C435.431 288.33 433.94 299.573 448.691 306.6C451.162 307.809 460.46 311.96 465.599 308.92C467.129 308.005 470.738 304.9 467.168 290.879C464.226 279.047 456.851 262.085 435.47 234.99C430.252 228.453 423.936 220.772 427.192 214.987C427.915 213.559 429.126 212.339 430.674 211.479C432.223 210.619 434.041 210.157 435.901 210.15C439.511 210.575 441.315 214.301 445.395 222.57C454.654 241.265 457.164 246.298 461.558 246.691C462.837 246.665 464.093 246.405 465.239 245.931C466.384 245.457 467.391 244.779 468.188 243.945C474.073 238.748 470.424 230.643 468.188 214.53C466.148 199.986 464.579 187.795 471.483 184.167C472.919 183.436 474.568 183.049 476.25 183.049C477.932 183.049 479.581 183.436 481.016 184.167C486.744 187.435 483.645 197.861 482.076 207.045C479.016 225.61 484.782 223.975 483.488 247.9C481.997 276.237 473.092 293.297 483.096 302.743C483.772 303.512 484.635 304.154 485.629 304.627C486.622 305.1 487.724 305.393 488.862 305.488C496.159 305.194 500.632 289.768 502.122 284.8C504.947 274.995 507.065 262.379 504.201 233.388C502.632 217.569 504.202 201.554 501.73 185.801C501.102 182.075 499.651 173.773 504.594 170.963C506.368 170.183 508.383 169.866 510.377 170.052C512.371 170.239 514.252 170.92 515.775 172.008C520.757 175.538 519.188 182.5 517.854 192.37C516.167 204.954 512.479 232.669 520.757 235.48C521.662 235.673 522.605 235.711 523.528 235.593C524.452 235.476 525.337 235.203 526.131 234.794C530.054 232.898 530.054 228.649 532.33 221.328C534.33 215.282 536.802 207.797 541.863 206.849C543.343 206.713 544.84 206.893 546.213 207.373C547.586 207.854 548.79 208.618 549.709 209.595C557.045 217.014 545.04 235.055 537.94 245.547C528.21 260.156 525.19 259.306 518.324 270.713C509.615 286.695 505.928 304.541 509.615 306.109C511.381 306.763 514.519 303.756 520.796 297.808C533.35 285.911 534.84 279.963 543.157 277.805C547.433 276.694 553.239 276.694 554.73 278.851C556.221 281.008 553.083 284.669 551.827 286.107C546.453 292.382 540.333 292.088 533.232 298.854C532.722 299.344 527.818 304.018 529.074 305.39C530.329 306.763 537.704 302.122 544.413 304.377C547.63 305.488 550.65 308.299 550.179 310.587C549.513 313.855 541.98 314.084 534.056 316.797C523.248 320.807 514.356 327.709 508.791 336.407C503.107 345.546 501.628 356.1 504.633 366.084C505.928 369.908 508.556 377.981 513.774 378.504C520.639 379.157 531.427 366.084 533.624 352.618C535.272 342.552 531.388 336.538 536.959 331.603C540.882 328.04 547.865 326.635 550.179 328.498C553.436 331.014 546.256 338.662 551.003 343.663C551.531 344.297 552.206 344.838 552.987 345.253C553.768 345.669 554.641 345.95 555.554 346.081C560.105 346.081 563.714 339.904 572.541 323.203C572.541 323.203 577.445 313.953 590.351 295.258C592.666 291.99 595.922 287.316 600.277 287.349C602.038 287.501 603.71 288.068 605.099 288.982C606.489 289.897 607.537 291.121 608.123 292.513C611.497 300.619 593.529 307.613 586.154 327.68C583.918 333.89 583.486 339.054 585.33 339.773C587.174 340.492 591.097 334.511 599.845 332.518C604.553 331.439 610.79 331.57 611.85 333.564C613.183 336.178 605.298 341.342 601.885 343.565C596.443 346.715 590.784 349.596 584.938 352.193C577.758 355.984 579.485 356.148 570.854 361.149C559.516 367.685 554.063 368.927 550.14 374.941C549.709 375.627 546.806 380.105 548.493 381.478C550.18 382.85 557.79 377.294 568.382 378.013C572.737 378.307 578.504 379.811 578.7 381.805C578.896 383.798 572.972 385.432 555.946 391.806C547.198 395.074 542.843 396.708 540.254 398.016C532.212 402.003 522.561 406.808 518.717 414.913C513.656 425.666 523.777 431.941 517.893 439.066C512.401 445.603 499.023 445.864 491.805 445.962C484.586 446.061 480.036 446.159 477.211 443.577Z" fill="#2E1845"/>
<path id="Vector_2" d="M478.794 440.154C473.344 434.866 483.125 426.264 478.794 416.26C474.932 407.308 462.372 403.23 456.453 401.319C447.755 398.483 445.878 400.331 433.463 396.54C418.16 391.889 416.788 387.811 416.536 386.377C416.346 385.469 416.401 384.535 416.696 383.65C416.991 382.765 417.517 381.953 418.232 381.28C420.939 379.113 425.45 380.706 432.669 382.204C443.496 384.402 450.715 385.963 452.303 383.988C454.793 380.802 443.171 364.872 427.941 363.088C422.455 362.419 420.939 364.108 408.992 363.694C394.808 363.184 392.715 360.667 392.065 359.488C391.468 358.411 391.276 357.194 391.516 356.014C391.756 354.834 392.416 353.752 393.401 352.926C394.736 352.193 396.144 352.926 399.681 353.563C405.888 354.964 410.147 355.92 411.663 354.55C413.179 353.18 411.663 348.688 409.461 345.885C405.852 341.201 402.243 341.839 397.082 336.932C395.025 334.989 389.864 330.242 391.524 326.005C391.95 324.844 392.757 323.822 393.843 323.067C394.929 322.312 396.245 321.86 397.623 321.768C401.052 322.023 401.81 326.515 409.064 332.536C412.277 335.18 413.107 335.148 413.504 334.989C415.669 334.001 410.183 325.432 413.901 321.927C415.487 320.804 417.476 320.219 419.508 320.277C421.54 320.336 423.481 321.034 424.981 322.246C427.327 324.603 425.306 327.821 425.342 334.001C425.634 338.693 426.755 343.315 428.662 347.701C434.942 363.311 464.069 375.673 471.07 370.002C474.68 367.039 471.901 359.807 469.988 354.646C461.001 330.72 434.221 316.416 430.106 314.313C417.943 307.941 403.615 303.417 400.763 294.497C400.475 293.605 399.356 290.1 401.124 288.731C402.893 287.361 405.419 288.731 411.952 290.323C418.484 291.916 422.274 292.808 423.176 291.948C425.414 289.782 419.567 279.205 410.147 271.782C405.347 268.118 401.269 266.653 400.727 262.83C400.471 261.312 400.749 259.762 401.524 258.389C402.298 257.015 403.532 255.885 405.058 255.151C411.122 253.367 420.506 264.709 424.981 270.189C440.356 288.826 438.985 299.785 452.555 306.635C454.829 307.814 463.383 311.86 468.111 308.897C469.518 308.005 472.839 304.978 469.555 291.311C466.848 279.778 460.062 263.244 440.392 236.833C435.592 230.461 429.781 222.974 432.777 217.335C433.442 215.943 434.556 214.753 435.98 213.915C437.405 213.077 439.077 212.627 440.789 212.62C444.11 213.035 445.77 216.666 449.524 224.727C458.041 242.95 460.351 247.856 464.393 248.238C465.57 248.213 466.726 247.96 467.78 247.498C468.834 247.035 469.76 246.375 470.493 245.562C475.907 240.496 472.55 232.596 470.493 216.889C468.616 202.712 467.172 190.829 473.525 187.293C474.845 186.58 476.362 186.204 477.91 186.204C479.457 186.204 480.975 186.58 482.295 187.293C487.564 190.479 484.713 200.641 483.269 209.594C480.454 227.689 485.76 226.096 484.569 249.417C483.197 277.038 475.004 293.668 484.208 302.876C484.83 303.625 485.624 304.251 486.538 304.712C487.452 305.173 488.466 305.459 489.513 305.552C496.227 305.265 500.341 290.228 501.712 285.385C504.311 275.828 506.26 263.53 503.625 235.272C502.182 219.852 503.625 204.241 501.352 188.886C500.774 185.254 499.439 177.162 503.986 174.422C505.619 173.662 507.473 173.352 509.307 173.534C511.141 173.716 512.871 174.38 514.272 175.441C518.856 178.882 517.412 185.668 516.185 195.289C514.633 207.555 511.241 234.571 518.856 237.311C519.689 237.499 520.556 237.536 521.406 237.421C522.255 237.306 523.07 237.041 523.801 236.642C527.41 234.794 527.41 230.652 529.503 223.516C531.344 217.622 533.618 210.326 538.274 209.403C539.635 209.269 541.013 209.445 542.276 209.914C543.539 210.382 544.646 211.127 545.492 212.079C552.241 219.311 541.197 236.896 534.664 247.123C525.714 261.364 522.935 260.536 516.618 271.654C508.606 287.233 505.213 304.628 508.606 306.157C510.23 306.794 513.118 303.863 518.892 298.065C530.442 286.469 531.813 280.67 539.465 278.568C543.399 277.484 548.74 277.484 550.112 279.587C551.483 281.69 548.596 285.258 547.441 286.66C542.496 292.777 536.866 292.49 530.333 299.085C529.864 299.562 525.353 304.118 526.508 305.456C527.663 306.794 534.448 302.27 540.62 304.469C543.579 305.552 546.358 308.292 545.925 310.522C545.312 313.708 538.382 313.931 531.091 316.575C521.148 320.484 512.968 327.211 507.848 335.69C502.618 344.598 501.258 354.886 504.022 364.618C505.213 368.345 507.632 376.214 512.432 376.724C518.748 377.361 528.673 364.618 530.694 351.492C532.21 341.679 528.637 335.817 533.762 331.007C537.371 327.534 543.796 326.164 545.925 327.98C548.921 330.433 542.316 337.888 546.683 342.763C547.169 343.381 547.789 343.908 548.508 344.313C549.227 344.718 550.03 344.992 550.87 345.12C555.056 345.12 558.377 339.099 566.497 322.819C566.497 322.819 571.009 313.803 582.883 295.58C585.013 292.394 588.008 287.838 592.014 287.87C593.635 288.019 595.173 288.571 596.451 289.462C597.729 290.354 598.694 291.547 599.233 292.904C602.337 300.805 585.807 307.623 579.021 327.184C576.964 333.237 576.567 338.271 578.263 338.971C579.96 339.672 583.569 333.842 591.617 331.899C595.949 330.848 601.687 330.975 602.662 332.918C603.889 335.467 596.634 340.501 593.494 342.667C588.488 345.737 583.282 348.546 577.903 351.078C571.298 354.773 572.886 354.933 564.946 359.807C554.515 366.179 549.498 367.389 545.889 373.251C545.492 373.92 542.821 378.285 544.373 379.623C545.925 380.961 552.927 375.545 562.672 376.246C566.678 376.533 571.983 377.998 572.164 379.942C572.344 381.885 566.895 383.478 551.231 389.69C543.182 392.876 539.176 394.469 536.794 395.743C529.395 399.63 520.516 404.313 516.979 412.214C512.324 422.696 521.635 428.813 516.221 435.758C511.169 442.13 498.861 442.384 492.22 442.48C485.579 442.576 481.393 442.671 478.794 440.154Z" fill="#6C3F69" stroke="#231F20" stroke-miterlimit="10"/>
</g>
<g id="about-plant-1">
<g id="Group 10">
<g id="Frame" clip-path="url(#clip0_107_47)">
<path id="Vector 110" d="M139.588 115.763C136.43 125.935 132.882 150.821 143.961 168.99C155.04 187.158 157.324 218.195 157.081 227.894" stroke="#C26B7A" stroke-width="3" stroke-linecap="round"/>
<path id="Vector 112" d="M93.1244 152.46C90.6773 163.82 88.811 191.378 100.924 210.735C113.036 230.093 117.321 264.088 117.717 274.765" stroke="#A6416E" stroke-width="3" stroke-linecap="round"/>
<path id="Vector 132" d="M83.3029 188.396C82.6858 195.771 85.0553 212.404 99.4706 219.939C113.886 227.474 123.066 245.956 125.047 252.055" stroke="#C26B7A" stroke-width="3" stroke-linecap="round"/>
<path id="Vector 122" d="M78.1423 241.645C69.3466 250.729 54.2105 275.186 64.0321 300.339C73.8537 325.492 65.2192 359.576 61.0602 369.716" stroke="#A6416E" stroke-width="3" stroke-linecap="round"/>
<path id="Vector 119" d="M71.0113 282.097C73.6469 290.295 75.9741 310.118 64.1981 323.829C52.4221 337.54 48.7118 361.889 48.4954 369.552" stroke="#A6416E" stroke-width="3" stroke-linecap="round"/>
<path id="Vector 130" d="M247.674 70.2085C252.303 77.5218 259.573 96.1765 251.629 112.289C243.685 128.402 246.249 152.891 247.978 160.369" stroke="#A6416E" stroke-width="3" stroke-linecap="round"/>
<path id="Vector 129" d="M307.105 245.947C314.898 252.043 327.555 269.249 315.841 289.299C304.127 309.349 309.63 334.483 312.816 341.813" stroke="#A6416E" stroke-width="3" stroke-linecap="round"/>
<path id="Vector 121" d="M90.0909 283.223C99.483 290.838 115.311 312.251 103.487 336.983C91.6625 361.716 99.9292 392.887 104.149 401.991" stroke="#A6416E" stroke-width="5" stroke-linecap="round"/>
<path id="Vector 131" d="M77.9536 251.902C91.2814 259.61 112.291 282.981 89.7056 314.804C67.1205 346.626 74.712 383.017 79.7384 393.356" stroke="#C26B7A" stroke-width="3" stroke-linecap="round"/>
<path id="Vector 126" d="M146.943 75.9924C157.151 85.5941 174.975 111.868 164.607 140.148C154.239 168.429 164.995 205.662 169.992 216.66" stroke="#A6416E" stroke-width="3" stroke-linecap="round"/>
<path id="Vector 120" d="M49.0862 190.918C56.5051 203.638 66.8548 235.601 48.9016 261.695C30.9484 287.79 31.3377 329.007 33.2447 341.694" stroke="#C26B7A" stroke-width="5" stroke-linecap="round"/>
<path id="Vector 123" d="M27.72 213.09C35.8975 220.337 48.3315 240.079 32.6475 261.067C16.9635 282.055 20.3191 309.902 23.1007 318.144" stroke="#A6416E" stroke-width="3" stroke-linecap="round"/>
<path id="Vector 114" d="M170.734 282.561C166.707 295.365 162.237 326.674 176.579 349.478C190.92 372.282 193.986 411.303 193.711 423.501" stroke="#A6416E" stroke-width="5" stroke-linecap="round"/>
<path id="Vector 118" d="M186.917 236.796C184.194 252.502 182.896 290.485 199.49 316.775C216.085 343.065 223.075 389.729 224.031 404.413" stroke="#C26B7A" stroke-width="5" stroke-linecap="round"/>
<path id="Vector 125" d="M284.258 182.027C279.146 197.157 272.013 234.521 284.371 262.937C296.728 291.353 296.452 338.51 295.136 353.167" stroke="#A6416E" stroke-width="3" stroke-linecap="round"/>
<path id="Vector 117" d="M210.914 221.022C203.384 234.922 194.985 268.899 221.632 293.605C248.278 318.311 253.89 360.636 253.349 373.87" stroke="#A6416E" stroke-width="3" stroke-linecap="round"/>
<path id="Vector 124" d="M257.9 188.772C244.427 201.948 224.703 237.025 253.599 271.926C282.495 306.827 279.143 355.135 275.066 369.58" stroke="#C26B7A" stroke-width="3" stroke-linecap="round"/>
<path id="Vector 128" d="M341.555 193.846C354.306 203.831 372.262 231.1 342.075 260.301C311.889 289.502 313.036 328.071 316.424 339.474" stroke="#A6416E" stroke-width="3" stroke-linecap="round"/>
<path id="Vector 115" d="M150.602 336.927C148.134 346.696 147.28 369.775 163.605 383.943C179.929 398.111 187.181 425.579 188.261 434.35" stroke="#C26B7A" stroke-width="3" stroke-linecap="round"/>
<path id="Vector 116" d="M191.733 303.76C185.726 313.243 178.171 336.867 196.009 355.492C213.846 374.118 215.884 404.257 214.887 413.579" stroke="#A6416E" stroke-width="3" stroke-linecap="round"/>
<path id="Vector 127" d="M116.347 81.4519C110.044 95.6865 101.765 130.933 119.074 158.044C136.383 185.155 137.518 229.791 136.238 243.642" stroke="#A6416E" stroke-width="5" stroke-linecap="round"/>
<path id="Vector 111" d="M195.448 35.5671C189.878 47.9284 183.623 78.1703 203.159 100.248C222.696 122.326 226.723 160.042 226.295 171.828" stroke="#C26B7A" stroke-width="5" stroke-linecap="round"/>
<path id="Vector_3" d="M165.125 506.373C168.204 508.773 172.13 509.895 176.053 509.495C180.909 510.087 185.808 508.791 189.69 505.889C198.586 498.061 190.367 482.009 193.077 463.406C193.935 458.833 196.283 447.046 215.655 424.794C239.046 397.747 262.031 384.861 302.266 357.199C367.924 312.122 379.529 296.597 384.045 278.522C386.709 267.792 386.574 257.457 386.303 240.305C385.851 210.884 380.749 196.371 378.22 175.701C375.354 150.829 376.881 125.661 382.735 101.29C381.607 90.8236 380.297 88.4929 379.303 88.4929C375.629 88.2773 371.65 113.936 371.07 117.674L371.04 117.87C369.143 129.626 368.162 141.505 368.105 153.405C369.143 223.11 384.135 262.163 362.189 290.045C357.098 295.993 351.607 301.605 345.752 306.844C334.119 317.671 321.699 327.666 308.588 336.75C293.009 347.832 291.383 347.92 265.915 364.808C251.254 374.011 237.114 383.979 223.558 394.669C211.309 404.827 200.075 416.091 190.006 428.312C184.407 431.346 175.827 434.601 169.053 431.61C162.28 428.62 161.512 421.583 153.971 403.2C147.649 387.764 147.468 391.018 138.889 370.964C133.905 360.355 129.68 349.422 126.245 338.245C125.522 335.386 116.942 299.28 135.005 266.692C142.953 252.399 152.752 244.747 172.485 230.19C231.37 186.696 254.535 173.371 286.145 146.412C323.58 114.616 331.302 99.1355 335.005 86.7336C337.868 76.4508 342.736 53.2857 339.3 42.8874C335.864 32.4892 323.265 33.4381 324.722 41.2447C326.961 50.9571 325.115 72.8806 321.593 87.5253C319.426 96.8047 314.187 106.656 292.332 126.534C258.012 157.846 242.704 158.858 196.328 194.04C187.342 200.813 191.911 194.568 148.335 230.19C124.582 249.629 121.774 255.082 115.813 265.461C105.337 283.536 103.35 300.574 103.35 313.767C103.26 329.731 105.111 349.635 116.897 367.754C122.316 376.11 125.974 377.517 135.005 394.669C143.314 410.237 145.436 417.801 144.308 418.769C143.179 419.736 140.65 419.736 118.071 407.818C110.395 403.772 106.556 401.749 103.35 399.858L103.174 399.754C81.0356 386.668 54.1629 370.784 32.7702 336.134L32.4993 335.694C22.7906 319.555 16.8258 301.542 15.0236 282.92C12.5851 257.545 18.9973 241.757 11.8174 238.37C9.87376 237.621 7.70997 237.621 5.76636 238.37C1.76027 259.713 2.62035 281.652 8.28563 302.635C13.9509 323.618 24.2829 343.131 38.5502 359.794C66.1009 392.194 111.334 417.338 131.522 428.56L131.709 428.664C141.192 433.897 155.958 441.637 160.022 456.194C161.798 465.484 162.435 474.947 161.919 484.384C161.738 495.246 160.609 501.975 165.125 506.373Z" fill="#A6416E" stroke="#231F20" stroke-miterlimit="10"/>
</g>
<path id="Vector 113" d="M253.872 3.49316C248.37 15.6493 242.191 45.3894 261.49 67.1008C280.789 88.8122 284.767 125.902 284.344 137.493" stroke="#A6416E" stroke-width="5" stroke-linecap="round"/>
<path id="Vector 131_2" d="M293.379 25.9457C285.785 32.7833 274.087 51.4689 288.048 71.5105C302.008 91.5521 298.461 117.997 295.778 125.813" stroke="#A6416E" stroke-width="3" stroke-linecap="round"/>
<path id="Vector 132_2" d="M344.682 123.98C330.816 137.64 308.183 174.69 328.577 213.614C348.971 252.537 338.861 304.572 333.118 320.002" stroke="#C26B7A" stroke-width="5" stroke-linecap="round"/>
</g>
</g>
<g id="hermit3">
<path id="shell top" d="M166.442 347.883C127.15 403.605 145.308 465.161 159.298 488.974C221.449 372.529 375.697 362.468 445.051 371.994C459.339 309.485 329.857 268.408 310.211 246.083C290.566 223.759 274.492 205.899 259.312 231.796C244.131 257.692 215.556 278.231 166.442 347.883Z" fill="#C26B7A" stroke="#2E1845"/>
<g id="shell bottom">
<path id="Vector 27" d="M133.401 522.907C137.867 545.232 135.187 595.239 159.298 640.781C190.254 661.021 268.598 701.86 334.322 703.289C400.045 704.718 486.724 652.092 521.848 625.6C517.383 592.56 553.102 542.553 556.674 517.549C560.246 492.546 497.737 397.89 482.557 371.994C467.376 346.097 392.366 335.381 350.395 331.809C308.425 328.238 193.231 370.208 178.05 397.89C162.87 425.572 128.936 500.583 133.401 522.907Z" fill="#A6416E" stroke="#2E1845"/>
<path id="Vector 31" d="M187.616 553.082C191.015 571.672 188.975 613.315 207.327 651.24C230.89 668.096 290.523 702.104 340.549 703.294C390.575 704.484 456.551 660.66 483.286 638.599C479.888 611.084 507.076 569.441 509.794 548.62C512.513 527.798 464.934 448.974 453.379 427.409C441.824 405.844 384.729 396.92 352.783 393.946C320.837 390.971 233.156 425.921 221.601 448.974C210.046 472.026 184.217 534.491 187.616 553.082Z" fill="#6C3F69" stroke="#2E1845"/>
</g>
<g id="right leg back">
<path id="Vector 20" d="M421.244 671.769C408.123 678.201 397.339 669.089 393.587 663.73C387.912 658.014 398.411 644.113 407.415 638.003C416.42 631.892 424.781 640.254 434.107 648.615C443.433 656.976 437.645 663.73 421.244 671.769Z" fill="#D58A62" stroke="#2E1845"/>
<path id="Vector 25" d="M438.459 729.705C433.483 727.47 417.114 709.701 415.474 689.738C413.578 681.205 412.549 662.181 423.603 654.356C437.42 644.575 454.184 675.579 456.129 698.831C458.075 722.083 443.435 731.94 438.459 729.705Z" fill="#D58A62" stroke="#2E1845"/>
</g>
<path id="left leg back" d="M287.175 703.514C294.447 697.961 300.374 688.681 301.17 679.564C302.231 678.003 304.917 672.999 307.175 665.469C309.998 656.056 307.204 650.431 294.483 646.881C281.762 643.331 258.928 680.287 256.68 691.763C254.432 703.24 264.023 717.439 270.556 718.456C277.089 719.474 279.903 709.067 287.175 703.514Z" fill="#D58A62" stroke="#2E1845"/>
<path id="back" d="M343.113 681.401C410.425 680.447 422.081 639.232 419.495 618.744L278.069 576.973C271.704 612.18 275.801 682.356 343.113 681.401Z" fill="#D58A62" stroke="#2E1845"/>
<path id="head" d="M258.55 562.92C258.55 500.422 299.173 469.174 378.857 468.393C414.793 468.393 488.228 490.267 488.228 554.326C488.228 618.386 407.762 637.135 382.763 637.135C357.765 637.135 258.55 625.417 258.55 562.92Z" fill="#FFC3A4" stroke="#2E1845"/>
<path id="smile" d="M366.211 544.104C370.617 551.196 380.719 565.638 385.877 566.67C390.282 564.951 400.061 558.868 403.929 548.295" stroke="#2E1845"/>
<g id="right eye">
<path id="Vector 29" d="M431.98 392.053C394.336 403.826 428.462 453.197 421.074 512.821L431.98 530.291C444.059 528.519 471.313 516.771 483.697 483.959C499.177 442.943 469.625 380.28 431.98 392.053Z" fill="#FFC3A4"/>
<path id="Vector 10" d="M421.402 512.821C428.791 453.197 394.665 403.826 432.309 392.053C469.953 380.28 499.506 442.943 484.026 483.959C471.642 516.771 444.388 528.519 432.309 530.291" stroke="#553856"/>
<path id="Vector 4" d="M444.284 382.311C410.667 382.311 404.364 489.045 453.949 489.045C503.533 489.045 485.465 382.311 444.284 382.311Z" fill="#2E1845"/>
<path id="Vector 7" d="M440.883 396.758C452.234 385.407 464.666 409.19 452.774 421.081C440.883 432.973 428.991 408.649 440.883 396.758Z" fill="white"/>
</g>
<g id="left eye">
<path id="Vector 30" d="M332.589 392.053C373.225 403.826 336.387 453.197 344.362 512.821L332.589 530.291C319.55 528.519 290.13 516.771 276.762 483.959C260.052 442.943 291.953 380.28 332.589 392.053Z" fill="#FFC3A4"/>
<path id="Vector 5" d="M333.111 383.217C293.022 383.217 252.162 451.06 294.949 481.898C337.737 512.736 371.272 383.217 333.111 383.217Z" fill="#2E1845"/>
<path id="Vector 6" d="M332.124 392.771C322.074 382.72 304.675 402.065 316.562 413.952C328.45 425.84 343.688 404.334 332.124 392.771Z" fill="white"/>
<path id="Vector 9" d="M344.362 512.821C336.387 453.197 373.225 403.826 332.589 392.053C291.953 380.28 260.052 442.943 276.762 483.959C290.13 516.771 319.55 528.519 332.589 530.291" stroke="#2E1845"/>
</g>
<g id="left leg">
<path id="Vector 12" d="M197.671 702.247C143.401 683.629 139.52 608.836 181.818 566.538C214.69 533.031 273.729 582.614 284.821 622.624C295.913 662.633 251.942 720.865 197.671 702.247Z" fill="#FFC3A4" stroke="#2E1845"/>
<path id="Vector 15" d="M247.972 712.679C220.571 703.422 200.205 684.907 224.644 654.173C231.381 644.003 252.416 640.102 268.339 650.47C284.261 660.839 283.15 675.28 290.186 700.46C297.221 725.639 275.374 721.936 247.972 712.679Z" fill="#FFC3A4" stroke="#2E1845"/>
</g>
<g id="right arm">
<path id="Vector 13" d="M546.6 695.723C586.581 667.08 596.725 595.471 542.422 565.038C489.313 534.604 435.607 581.15 439.784 643.21C443.961 705.271 506.618 724.366 546.6 695.723Z" fill="#FFC3A4" stroke="#2E1845"/>
<path id="Vector 16" d="M493.105 682.315C501.992 710.828 449.411 729.342 423.49 722.307C422.009 722.307 419.047 720.307 419.047 712.309C419.047 702.311 436.821 661.949 446.078 657.876C455.336 653.803 484.218 653.803 493.105 682.315Z" fill="#FFC3A4" stroke="#2E1845"/>
</g>
</g>
</g>
<defs>
<clipPath id="clip0_107_47">
<rect width="387.761" height="485.431" fill="white" transform="translate(0.373047 32.7284)"/>
</clipPath>
</defs>
</svg>
