<svg width="211" height="203" viewBox="0 0 211 203" fill="none" xmlns="http://www.w3.org/2000/svg">
<g id="pink-star-2">
<path id="starfish" d="M98.4093 184.898C96.3835 189.783 94.3349 195.521 89.2025 197.302C87.9622 197.718 86.652 197.884 85.3474 197.79C84.0428 197.697 82.7698 197.345 81.6018 196.755C79.4594 195.506 77.1303 192.735 76.4148 183.922C75.6639 174.898 77.3411 168.094 78.908 161.42C85.1084 134.212 83.981 129.966 81.9132 127.372C80.7208 125.94 79.0888 123.635 70.1404 123.133C51.4224 122.108 32.8407 117.672 14.1054 118.385C11.9593 118.559 9.81516 118.027 7.99786 116.87C6.44194 115.648 5.24628 114.026 4.53839 112.176C3.8305 110.326 3.63693 108.319 3.97841 106.367C5.18382 100.426 12.6673 97.5514 21.4064 94.3425C28.8093 91.6841 36.4882 89.8731 44.2966 88.944C51.5634 88.2171 58.7501 86.8357 65.7698 84.8164C68.5386 84.1379 71.0207 82.5949 72.8577 80.4104C73.9042 79.0631 75.0144 76.9545 75.3835 72.3404C75.9161 65.7255 74.159 63.2049 71.8529 50.8147C70.9338 45.9186 70.9268 45.0642 70.1022 41.7458C69.076 37.885 67.7434 34.1127 66.1173 30.4649C63.2778 23.311 61.8693 15.667 61.9719 7.96787C61.9393 7.15457 62.0724 6.34308 62.3632 5.58302C62.6539 4.82296 63.0963 4.13028 63.6631 3.54726C65.9766 1.61186 70.1262 3.11464 71.5537 3.62751C82.3841 7.53953 91.3826 28.4836 108.118 48.9167C111.707 53.3017 116.548 58.7612 123.744 59.6648C127.477 60.1151 130.999 59.2373 136.193 56.7553C151.056 49.6222 159.082 39.2337 175.04 28.6725C177.057 27.3533 181.506 24.4637 186.731 25.3248C187.223 25.3467 192.667 26.3075 194.149 29.9847C195.773 34.1477 191.476 39.3518 188.852 42.5622C166.837 69.3386 162.347 75.5082 159.24 83.2077C156.976 88.7418 154.077 96.1359 156.66 103.953C157.976 107.997 161.652 110.787 171.914 118.406C192.613 133.755 203.137 136.779 204.036 145.496C204.25 147.061 204.084 148.654 203.552 150.141C203.02 151.628 202.138 152.964 200.981 154.037C197.238 156.868 191.596 154.28 177.299 148.641C166.19 144.267 155.248 140.17 142.318 138.428C138.094 137.566 133.712 137.944 129.696 139.516C124.618 141.748 121.944 145.751 118.903 150.606C106.875 169.314 100.97 178.732 98.4093 184.898Z" fill="#2E1845" stroke="#231F20" stroke-width="0.5" stroke-miterlimit="10"/>
<path id="Vector" d="M100.623 174.791C98.8546 179.074 97.0678 184.098 92.6276 185.674C91.5517 186.04 90.4127 186.185 89.2787 186.103C88.1447 186.02 87.0391 185.71 86.0279 185.193C84.1614 184.107 82.1352 181.676 81.5135 173.944C80.8918 166.211 82.3342 160.053 83.6617 154.181C89.1056 130.304 88.0728 126.565 86.2292 124.303C85.1892 123.036 83.7875 121.025 76.0163 120.594C59.7596 119.684 43.6342 115.814 27.3677 116.444C25.5005 116.601 23.6336 116.135 22.0623 115.118C20.6975 114.035 19.6495 112.607 19.0275 110.984C18.4054 109.361 18.232 107.602 18.5253 105.89C19.5751 100.674 26.0741 98.1564 33.6102 95.3214C40.0319 92.987 46.7039 91.3999 53.4933 90.5917C59.8026 89.9377 67.1825 89.9563 73.2721 88.1909C75.6866 87.5815 77.7188 85.9205 79.2996 84.0061C80.2144 82.8255 80.7925 79.9806 81.1186 75.9245C81.5802 70.1299 80.0223 67.7136 77.4142 57.111C76.626 52.8019 76.4592 51.9125 75.7418 48.9731C74.8435 45.5878 73.8315 42.4265 72.4049 39.2254C69.9405 32.9406 68.719 26.2422 68.8073 19.498C68.7667 18.78 68.8725 18.0612 69.1185 17.385C69.3645 16.7089 69.7456 16.0893 70.2388 15.5636C72.2435 13.8644 75.8535 15.1875 77.0906 15.6349C86.4976 19.0614 94.3341 37.465 108.813 55.3781C111.918 59.2083 116.134 64.0038 122.369 64.7892C125.625 65.1953 128.67 64.4289 133.182 62.2303C146.102 55.9707 153.055 46.844 166.928 37.5591C168.675 36.4009 172.543 33.8975 177.071 34.6071C177.509 34.6266 182.265 35.4773 183.511 38.7017C184.927 42.3554 181.202 46.9294 178.914 49.7355C159.791 73.2526 155.897 78.6624 153.187 85.3895C151.218 90.245 148.708 96.7483 150.918 103.592C152.076 107.147 154.296 110.153 163.208 116.828C181.173 130.288 191.238 132.391 192.054 140.045C192.239 141.413 192.094 142.805 191.633 144.107C191.171 145.408 190.405 146.582 189.398 147.531C186.142 150.076 181.247 147.751 168.852 142.811C159.215 138.967 149.64 135.387 138.555 133.864C134.885 133.102 131.071 133.439 127.594 134.831C123.122 136.784 120.859 140.348 118.216 144.592C107.968 161.103 102.836 169.38 100.623 174.791Z" fill="#C26B7A"/>
<g id="starfish-lines">
<path id="Vector 270" d="M105.161 126.58L94.1593 170.3" stroke="#2E1845" stroke-width="4" stroke-linecap="round"/>
<path id="Vector 271" d="M104.804 85.6006L78.7152 28.294" stroke="#2E1845" stroke-width="4" stroke-linecap="round"/>
<path id="Vector 272" d="M89.0059 106.216L32.2592 106.988" stroke="#2E1845" stroke-width="4" stroke-linecap="round"/>
<path id="Vector 273" d="M125.629 90.9828L169.451 48.3674" stroke="#2E1845" stroke-width="4" stroke-linecap="round"/>
<path id="Vector 274" d="M128.353 111.251L181.927 140.545" stroke="#2E1845" stroke-width="4" stroke-linecap="round"/>
</g>
</g>
</svg>
