<svg width="263" height="259" viewBox="0 0 263 259" fill="none" xmlns="http://www.w3.org/2000/svg">
<g id="pink-star-1">
<path id="starfish" d="M162.341 207.278C162.685 212.556 163.387 218.608 159.572 222.476C158.644 223.398 157.542 224.127 156.331 224.62C155.119 225.113 153.822 225.36 152.514 225.348C150.04 225.176 146.725 223.722 142.184 216.135C137.518 208.374 136.012 201.53 134.465 194.851C127.987 167.708 125.098 164.399 122.096 162.987C120.393 162.231 117.909 160.886 109.663 164.395C92.4227 171.757 73.7961 176 57.3095 184.928C55.4618 186.034 53.3037 186.505 51.162 186.272C49.2261 185.864 47.4361 184.938 45.9828 183.593C44.5296 182.247 43.4677 180.532 42.9105 178.631C41.3632 172.77 46.8024 166.881 53.22 160.136C58.6828 154.477 64.768 149.456 71.3596 145.168C77.5548 141.301 83.3887 136.882 88.7906 131.966C90.9734 130.132 92.5168 127.65 93.1977 124.879C93.5402 123.207 93.6028 120.825 91.8924 116.524C89.4435 110.356 86.7525 108.873 79.2026 98.7816C76.2122 94.7975 75.8279 94.0342 73.6203 91.4231C70.9918 88.4148 68.1278 85.6214 65.0556 83.0695C59.344 77.9101 54.6989 71.6781 51.3847 64.728C50.9956 64.0131 50.7559 63.2265 50.6804 62.4162C50.6049 61.6059 50.6951 60.789 50.9455 60.0154C52.164 57.2561 56.5502 56.768 58.0573 56.5963C69.5009 55.313 86.837 70.1145 110.886 81.0345C116.044 83.3795 122.801 86.1337 129.654 83.7603C133.201 82.5126 135.972 80.167 139.531 75.6434C149.705 62.6703 152.307 49.8029 161.945 33.2714C163.17 31.196 165.882 26.6362 170.948 25.097C171.399 24.8987 176.707 23.3516 179.662 25.9939C182.961 29.0086 181.409 35.577 180.476 39.6171C172.58 73.3701 171.284 80.8894 171.903 89.1692C172.322 95.1338 172.993 103.048 178.768 108.915C181.737 111.96 186.268 112.836 198.842 115.127C224.196 119.734 234.972 117.791 239.635 125.21C240.519 126.519 241.074 128.021 241.255 129.59C241.436 131.159 241.237 132.748 240.674 134.221C238.569 138.417 232.365 138.592 217.048 139.86C205.15 140.852 193.525 142.019 181.159 146.177C176.989 147.273 173.226 149.551 170.321 152.738C166.755 156.986 166.127 161.759 165.548 167.458C163.038 189.557 161.91 200.616 162.341 207.278Z" fill="#2E1845" stroke="#231F20" stroke-width="0.5" stroke-miterlimit="10"/>
<path id="Vector" d="M159.855 197.236C160.164 201.859 160.784 207.155 157.499 210.533C156.696 211.337 155.739 211.971 154.686 212.399C153.632 212.826 152.504 213.038 151.368 213.021C149.213 212.873 146.321 211.59 142.342 204.93C138.364 198.271 136.933 192.11 135.525 186.256C129.843 162.435 127.263 159.539 124.609 158.326C123.115 157.649 120.969 156.467 113.809 159.518C98.827 165.894 82.6535 169.558 68.3446 177.32C66.7396 178.287 64.859 178.695 63.0002 178.478C61.2967 178.11 59.7253 177.293 58.4493 176.113C57.1734 174.933 56.2397 173.432 55.7453 171.767C54.379 166.625 59.0934 161.492 64.5976 155.615C69.3238 150.68 74.6051 146.305 80.3363 142.577C85.7052 139.199 92.3317 135.95 97.0118 131.673C98.9075 130.058 99.9951 127.669 100.566 125.253C100.864 123.79 100.124 120.983 98.6215 117.201C96.4718 111.8 94.0056 110.322 86.9758 101.968C84.3625 98.452 83.8194 97.7282 81.8756 95.4095C79.5722 92.771 77.266 90.3837 74.5703 88.1441C69.5797 83.5982 65.5207 78.1315 62.616 72.0442C62.2619 71.4182 62.0388 70.7268 61.9603 70.0115C61.8817 69.2963 61.9494 68.5721 62.1591 67.8824C63.2051 65.4716 67.0279 65.061 68.3354 64.9149C78.2876 63.8259 93.4576 76.8632 114.368 86.5216C118.847 88.5833 124.749 91.0186 130.689 88.9642C133.788 87.8878 136.18 85.8534 139.253 81.8856C148.071 70.5554 150.268 59.2945 158.602 44.8298C159.656 43.0182 162.017 39.0621 166.392 37.6949C166.793 37.5187 171.435 36.1772 173.979 38.5179C176.866 41.1678 175.549 46.918 174.738 50.4467C167.993 79.9976 166.895 86.5719 167.44 93.8038C167.823 99.0295 168.449 105.972 173.459 111.132C176.07 113.807 179.391 115.521 190.337 117.565C212.403 121.687 222.36 119.12 226.477 125.624C227.249 126.769 227.735 128.081 227.897 129.452C228.058 130.824 227.891 132.215 227.407 133.512C225.614 137.234 220.195 137.315 206.894 138.369C196.551 139.185 186.379 140.212 175.765 143.749C172.136 144.69 168.865 146.68 166.363 149.467C163.217 153.197 162.764 157.393 162.271 162.369C160.386 181.71 159.445 191.403 159.855 197.236Z" fill="#C26B7A"/>
<g id="starfish-lines">
<path id="Vector 270" d="M142.594 151.992L152.071 196.068" stroke="#2E1845" stroke-width="4" stroke-linecap="round"/>
<path id="Vector 271" d="M124.144 115.399L75.3932 75.549" stroke="#2E1845" stroke-width="4" stroke-linecap="round"/>
<path id="Vector 272" d="M119.097 140.877L68.5476 166.676" stroke="#2E1845" stroke-width="4" stroke-linecap="round"/>
<path id="Vector 273" d="M145.201 111.012L165.646 53.4067" stroke="#2E1845" stroke-width="4" stroke-linecap="round"/>
<path id="Vector 274" d="M156.611 127.984L217.617 130.552" stroke="#2E1845" stroke-width="4" stroke-linecap="round"/>
</g>
</g>
</svg>
