<svg width="154" height="149" viewBox="0 0 154 149" fill="none" xmlns="http://www.w3.org/2000/svg">
<g id="pink-star-3">
<path id="starfish" d="M76.0389 136.532C74.774 140.269 73.5344 144.642 69.8027 146.222C68.9002 146.594 67.9331 146.783 66.9574 146.778C65.9817 146.773 65.0166 146.574 64.1179 146.193C62.4611 145.37 60.5897 143.423 59.6189 136.899C58.6112 130.219 59.5214 125.071 60.3558 120.025C63.6182 99.4649 62.568 96.3605 60.8998 94.5323C59.9411 93.5261 58.6117 91.8913 51.926 91.9627C37.9424 92.1305 23.8906 89.7528 9.98051 91.2147C8.3917 91.4509 6.76927 91.1617 5.35904 90.3909C4.14014 89.5588 3.16949 88.4106 2.5506 87.069C1.93171 85.7273 1.6878 84.2424 1.84494 82.7727C2.4468 78.2909 7.87416 75.7788 14.2196 72.9558C19.5977 70.6089 25.2233 68.8791 30.9894 67.7993C36.3622 66.8969 41.6429 65.5113 46.7676 63.6593C48.7948 63.0165 50.5656 61.7446 51.8244 60.0272C52.5364 58.9724 53.2579 57.3476 53.3032 53.8948C53.3707 48.9445 51.9375 47.1557 49.6049 38.0477C48.6773 34.4491 48.6297 33.8134 47.8509 31.3844C46.895 28.5617 45.7156 25.82 44.3238 23.1857C41.8545 18.0018 40.426 12.3821 40.1196 6.64614C40.0549 6.0424 40.1136 5.43175 40.2923 4.85155C40.4709 4.27134 40.7657 3.73376 41.1586 3.2716C42.7845 1.71596 45.9479 2.62821 47.036 2.939C55.2921 5.31238 63.0314 20.4546 76.5047 34.8317C79.3935 37.9173 83.2685 41.7404 88.6699 42.0552C91.4708 42.2047 94.0491 41.3762 97.7914 39.2706C108.5 33.222 113.958 25.0902 125.311 16.4356C126.747 15.3534 129.915 12.9813 133.846 13.3625C134.214 13.3543 138.314 13.7988 139.6 16.4622C141.016 19.4802 138.076 23.5675 136.282 26.0876C121.227 47.1132 118.192 51.9287 116.262 57.8143C114.852 62.0462 113.061 67.6941 115.373 73.3842C116.554 76.3293 119.429 78.2233 127.446 83.3836C143.617 93.7793 151.6 95.5075 152.703 101.951C152.94 103.105 152.895 104.299 152.573 105.432C152.251 106.566 151.661 107.604 150.854 108.46C148.208 110.754 143.88 109.108 132.957 105.621C124.471 102.918 116.123 100.412 106.412 99.7584C103.225 99.327 99.9815 99.8262 97.0707 101.196C93.4022 103.11 91.6105 106.222 89.5883 109.988C81.5655 124.511 77.6386 131.815 76.0389 136.532Z" fill="#2E1845" stroke="#231F20" stroke-width="0.5" stroke-miterlimit="10"/>
<path id="Vector" d="M77.1842 128.899C76.0808 132.175 75.0006 136.003 71.774 137.397C70.9913 137.722 70.1507 137.887 69.3025 137.882C68.4543 137.877 67.616 137.702 66.8376 137.367C65.3942 136.651 63.7652 134.943 62.918 129.218C62.0707 123.493 62.8382 118.838 63.5343 114.401C66.3992 96.3573 65.4446 93.626 63.9598 92.0336C63.1227 91.142 61.9794 89.7154 56.1734 89.7803C44.0276 89.9113 31.8323 87.8325 19.7557 89.1106C18.3737 89.3204 16.9609 89.0661 15.7407 88.3876C14.671 87.6488 13.8199 86.6381 13.2762 85.461C12.7325 84.2838 12.516 82.9832 12.6491 81.6944C13.1712 77.7596 17.8835 75.5625 23.352 73.0776C28.0159 71.0207 32.9033 69.5076 37.9168 68.5685C42.5806 67.7679 48.0747 67.4148 52.5197 65.7979C54.2866 65.2243 55.7167 63.8869 56.7982 62.3833C57.4204 61.459 57.7093 59.3127 57.7503 56.2774C57.8058 51.9412 56.526 50.2201 54.0575 42.4578C53.2566 39.2895 53.0882 38.6358 52.408 36.4836C51.5711 34.0084 50.6606 31.7056 49.4395 29.3938C47.2927 24.8383 46.0504 19.9131 45.7808 14.8887C45.7149 14.3562 45.7579 13.8159 45.9074 13.3004C46.0569 12.7848 46.3097 12.3047 46.6507 11.8889C48.0584 10.5244 50.8113 11.3298 51.7544 11.6013C58.9268 13.6841 65.6749 26.9931 77.3433 39.6067C79.8443 42.3034 83.2209 45.6632 87.9013 45.9378C90.3451 46.0782 92.5735 45.3564 95.8223 43.4955C105.129 38.1937 109.85 31.0546 119.715 23.4536C120.958 22.5047 123.712 20.4489 127.118 20.752C127.445 20.7447 131.028 21.1414 132.115 23.4796C133.351 26.1288 130.805 29.7187 129.242 31.9211C116.177 50.3768 113.548 54.5972 111.865 59.7392C110.64 63.4513 109.095 68.4169 111.081 73.4009C112.12 75.9895 113.921 78.1167 120.887 82.6425C134.929 91.7675 142.525 92.833 143.513 98.4896C143.718 99.4987 143.68 100.542 143.401 101.534C143.122 102.525 142.61 103.437 141.908 104.193C139.611 106.25 135.852 104.762 126.38 101.702C119.016 99.3196 111.71 97.1314 103.384 96.5483C100.614 96.1642 97.7917 96.6045 95.2728 97.8135C92.0416 99.4898 90.5345 102.255 88.7777 105.545C81.971 118.344 78.5626 124.761 77.1842 128.899Z" fill="#C26B7A"/>
<g id="starfish-lines">
<path id="Vector 270" d="M78.1647 92.7877L72.1498 125.877" stroke="#2E1845" stroke-width="4" stroke-linecap="round"/>
<path id="Vector 271" d="M75.8618 62.3022L53.5936 20.9435" stroke="#2E1845" stroke-width="4" stroke-linecap="round"/>
<path id="Vector 272" d="M65.1273 78.4331L22.9264 81.8292" stroke="#2E1845" stroke-width="4" stroke-linecap="round"/>
<path id="Vector 273" d="M91.6308 65.2729L122.13 31.3734" stroke="#2E1845" stroke-width="4" stroke-linecap="round"/>
<path id="Vector 274" d="M94.6659 80.2237L136 99.3652" stroke="#2E1845" stroke-width="4" stroke-linecap="round"/>
</g>
</g>
</svg>
